# xmcd CD database file
#
# Track frame offsets:
#	150
#	25971
#	44178
#	69297
#	98368
#	121863
#	152285
#	171211
#	191881
#
# Disc length: 2963 seconds
#
# Revision: 1
# Processed by: cddbd v1.5.2PL0 Copyright (c) Steve Scherf et al.
# Submitted via: CDex 1.70beta2
#
DISCID=6d0b9109
DTITLE=Chet Baker - Resonant Emotions
DYEAR=1956
DGENRE=Jazz
TTITLE0=Resonant Emotions
TTITLE1=For Minors Only
TTITLE2=Tynan Time
TTITLE3=For Miles And Miles
TTITLE4=CTA
TTITLE5=Minor Yours
TTITLE6=The Half Dozens
TTITLE7=Dot´s Groovy
TTITLE8=Picture Of Heath
EXTD=YEAR: 1956
EXTT0=
EXTT1=
EXTT2=
EXTT3=
EXTT4=
EXTT5=
EXTT6=
EXTT7=
EXTT8=
PLAYORDER=
